# xmcd CD database file
# Copyright (C) 1993-1998 Ti Kan
#
# Track frame offsets:
#	150
#	18386
#	34501
#	54577
#	75731
#	87254
#	106805
#	126461
#	141653
#	159703
#	169652
#	192804
#	209146
#	224393
#
# Disc length: 3225 seconds
#
# Revision: 1
# Processed by: cddbd v1.4b41PL1 Copyright (c) Steve Scherf et al.
# Submitted via: CDValet v3.31 - Copyright (c) 1997 Greg Leichner
#
DISCID=cb0c970e
DTITLE=Various Artist - HMV's Alternative Country Collection
DYEAR=1900
DGENRE=
TTITLE0=Cool Me Down/Kieran Kane
TTITLE1=Tarmac/Hazeldine
TTITLE2=Long Last Look/Coyotes
TTITLE3=Angels In The End/The Good Sons
TTITLE4=I Feel Fine/Kevin Welch
TTITLE5=Talk About Me/Go To Blazes
TTITLE6=Just Because/Albert Lee
TTITLE7=Tell It To The Raven/Carolyn Wenblom
TTITLE8=Ain't No Love In This Rock 'N' Roll World/David Munyon
TTITLE9=Conmen and Caravans/Carbolic Smokeball Co
TTITLE10=Pay Bo Diddley/Mike Henderson and The Bluebloods
TTITLE11=Ain't I A Woman/Katy Moffatt
TTITLE12=Big Rig Country/Andrew Hardin
TTITLE13=Big Water/Tom Russell
EXTD=
EXTT0=
EXTT1=
EXTT2=
EXTT3=
EXTT4=
EXTT5=
EXTT6=
EXTT7=
EXTT8=
EXTT9=
EXTT10=
EXTT11=
EXTT12=
EXTT13=
PLAYORDER=
